<svg xmlns="http://www.w3.org/2000/svg" width="1920" height="768" viewBox="0 0 960 384"><g transform="translate(0 0)"><g stroke="#315362" stroke-width="2.5" stroke-linejoin="round"><path d="M21 147 94 180 167 143 94 115Z" fill="#254d5720" stroke="none"/><path d="M34 72 96 98v68l-62-26Z" fill="#fff0cf" /><path d="M96 98 152 72v68l-56 26Z" fill="#b7d2cc" /><path d="M45 117v14l10 4v-14Z" fill="#4b8c9e" /><path d="M50 119v10" fill="none" stroke="#bce7dc" stroke-width="2"/><path d="M70 127.5v14l10 4v-14Z" fill="#4b8c9e" /><path d="M75 129.5v10" fill="none" stroke="#bce7dc" stroke-width="2"/><path d="M109 126v13l9-4v-13Z" fill="#397f91" /><path d="M132 115.65v13l9-4v-13Z" fill="#397f91" /><path d="M73 155v-22q8-11 16 7v22Z" fill="#69565e" /><path d="M25 72 69 41 159 71 98 104Z" fill="#bc5264" /><path d="M25 72 69 41 98 75 98 104Z" fill="#e77668" /><path d="M25 77 98 109 159 76v-7L98 99 25 67Z" fill="#ae4563" /><path d="M34 140 96 166l56-26" fill="none" stroke="#e3c396" stroke-width="4"/></g></g><g transform="translate(192 0)"><g stroke="#315362" stroke-width="2.5" stroke-linejoin="round"><path d="M21 147 94 180 167 143 94 115Z" fill="#254d5720" stroke="none"/><path d="M34 72 96 98v68l-62-26Z" fill="#fff0cf" /><path d="M96 98 152 72v68l-56 26Z" fill="#b7d2cc" /><path d="M45 117v14l10 4v-14Z" fill="#4b8c9e" /><path d="M50 119v10" fill="none" stroke="#bce7dc" stroke-width="2"/><path d="M70 127.5v14l10 4v-14Z" fill="#4b8c9e" /><path d="M75 129.5v10" fill="none" stroke="#bce7dc" stroke-width="2"/><path d="M109 126v13l9-4v-13Z" fill="#397f91" /><path d="M132 115.65v13l9-4v-13Z" fill="#397f91" /><path d="M73 155v-22q8-11 16 7v22Z" fill="#69565e" /><path d="M24 73 43 42 96 61 143 37 161 73 97 106Z" fill="#69778e" /><path d="M43 42 91 30 143 37 96 61Z" fill="#a6b6c2" /><path d="M63 63v-18l14 6v18Z" fill="#fff0cf" /><path d="m61 44 9-9 10 17Z" fill="#bc5264" /><path d="M34 140 96 166l56-26" fill="none" stroke="#e3c396" stroke-width="4"/></g></g><g transform="translate(384 0)"><g stroke="#315362" stroke-width="2.5" stroke-linejoin="round"><path d="M21 147 94 180 167 143 94 115Z" fill="#254d5720" stroke="none"/><path d="M34 72 96 98v68l-62-26Z" fill="#fff0cf" /><path d="M96 98 152 72v68l-56 26Z" fill="#b7d2cc" /><path d="M45 117v14l10 4v-14Z" fill="#4b8c9e" /><path d="M50 119v10" fill="none" stroke="#bce7dc" stroke-width="2"/><path d="M70 127.5v14l10 4v-14Z" fill="#4b8c9e" /><path d="M75 129.5v10" fill="none" stroke="#bce7dc" stroke-width="2"/><path d="M109 126v13l9-4v-13Z" fill="#397f91" /><path d="M132 115.65v13l9-4v-13Z" fill="#397f91" /><path d="M73 155v-22q8-11 16 7v22Z" fill="#69565e" /><path d="M21 78 55 33 121 62 160 77 98 108Z" fill="#bc5264" /><path d="M21 78 55 33 98 108Z" fill="#fff0cf" /><path d="M28 77 55 43 87 99M55 43v48" fill="none" stroke="#624b49" stroke-width="5"/><path d="M38 108 91 131m-53 30 53 23M65 96v54" fill="none" stroke="#806052" stroke-width="5"/><path d="M34 140 96 166l56-26" fill="none" stroke="#e3c396" stroke-width="4"/></g></g><g transform="translate(576 0)"><g stroke="#315362" stroke-width="2.5" stroke-linejoin="round"><path d="M21 147 94 180 167 143 94 115Z" fill="#254d5720" stroke="none"/><path d="M34 72 96 98v68l-62-26Z" fill="#fff0cf" /><path d="M96 98 152 72v68l-56 26Z" fill="#b7d2cc" /><path d="M45 117v14l10 4v-14Z" fill="#4b8c9e" /><path d="M50 119v10" fill="none" stroke="#bce7dc" stroke-width="2"/><path d="M70 127.5v14l10 4v-14Z" fill="#4b8c9e" /><path d="M75 129.5v10" fill="none" stroke="#bce7dc" stroke-width="2"/><path d="M109 126v13l9-4v-13Z" fill="#397f91" /><path d="M132 115.65v13l9-4v-13Z" fill="#397f91" /><path d="M73 155v-22q8-11 16 7v22Z" fill="#69565e" /><path d="M18 67q30 12 47-25l55 22q13 18 43 7l-8 15-59 27-70-26Z" fill="#526b7c" /><path d="M18 67q45 22 78 37 39-19 67-33" fill="none" stroke="#bc5264" stroke-width="6"/><path d="M34 107 96 133l56-26" fill="none" stroke="#bc5264" stroke-width="8"/><path d="M34 140 96 166l56-26" fill="none" stroke="#e3c396" stroke-width="4"/></g></g><g transform="translate(768 0)"><g stroke="#315362" stroke-width="2.5" stroke-linejoin="round"><path d="M21 147 94 180 167 143 94 115Z" fill="#254d5720" stroke="none"/><path d="M34 72 96 98v68l-62-26Z" fill="#fff0cf" /><path d="M96 98 152 72v68l-56 26Z" fill="#b7d2cc" /><path d="M45 117v14l10 4v-14Z" fill="#4b8c9e" /><path d="M50 119v10" fill="none" stroke="#bce7dc" stroke-width="2"/><path d="M70 127.5v14l10 4v-14Z" fill="#4b8c9e" /><path d="M75 129.5v10" fill="none" stroke="#bce7dc" stroke-width="2"/><path d="M109 126v13l9-4v-13Z" fill="#397f91" /><path d="M132 115.65v13l9-4v-13Z" fill="#397f91" /><path d="M73 155v-22q8-11 16 7v22Z" fill="#69565e" /><path d="M28 72 88 44 158 72 96 102Z" fill="#adb9be" /><path d="M61 59v-18l30-13 33 14v17l-31 15Z" fill="#fff0cf" /><path d="M91 28v-13m-12 40v-15m25 16v-15" fill="none" stroke="#bf596e" stroke-width="5"/><path d="M42 87v44m13 -34v39m76 -48v52" fill="none" stroke="#c89357" stroke-width="3"/><path d="M34 140 96 166l56-26" fill="none" stroke="#e3c396" stroke-width="4"/></g></g><g transform="translate(0 192)"><g stroke="#315362" stroke-width="2.5" stroke-linejoin="round"><path d="M21 147 94 180 167 143 94 115Z" fill="#254d5720" stroke="none"/><path d="M34 46 96 72v94l-62-26Z" fill="#fff0cf" /><path d="M96 72 152 46v94l-56 26Z" fill="#b7d2cc" /><path d="M45 71v14l10 4v-14Z" fill="#4b8c9e" /><path d="M50 73v10" fill="none" stroke="#bce7dc" stroke-width="2"/><path d="M70 81.5v14l10 4v-14Z" fill="#4b8c9e" /><path d="M75 83.5v10" fill="none" stroke="#bce7dc" stroke-width="2"/><path d="M45 96v14l10 4v-14Z" fill="#4b8c9e" /><path d="M50 98v10" fill="none" stroke="#bce7dc" stroke-width="2"/><path d="M70 106.5v14l10 4v-14Z" fill="#4b8c9e" /><path d="M75 108.5v10" fill="none" stroke="#bce7dc" stroke-width="2"/><path d="M45 121v14l10 4v-14Z" fill="#4b8c9e" /><path d="M50 123v10" fill="none" stroke="#bce7dc" stroke-width="2"/><path d="M70 131.5v14l10 4v-14Z" fill="#4b8c9e" /><path d="M75 133.5v10" fill="none" stroke="#bce7dc" stroke-width="2"/><path d="M109 80v13l9-4v-13Z" fill="#397f91" /><path d="M132 69.65v13l9-4v-13Z" fill="#397f91" /><path d="M109 105v13l9-4v-13Z" fill="#397f91" /><path d="M132 94.65v13l9-4v-13Z" fill="#397f91" /><path d="M109 130v13l9-4v-13Z" fill="#397f91" /><path d="M132 119.65v13l9-4v-13Z" fill="#397f91" /><path d="M73 155v-22q8-11 16 7v22Z" fill="#69565e" /><path d="M25 46 69 15 159 45 98 78Z" fill="#bc5264" /><path d="M25 46 69 15 98 49 98 78Z" fill="#e77668" /><path d="M25 51 98 83 159 50v-7L98 73 25 41Z" fill="#ae4563" /><g stroke="#294854" stroke-width="2"><path d="m52 90 33 14v20l-33-14Z" fill="#ffd36a"/><path d="M62 99v12m13-7v12m-13-11 13 6" fill="none" stroke-width="3"/></g><path d="M34 140 96 166l56-26" fill="none" stroke="#e3c396" stroke-width="4"/></g></g><g transform="translate(192 192)"><g stroke="#315362" stroke-width="2.5" stroke-linejoin="round"><path d="M21 147 94 180 167 143 94 115Z" fill="#254d5720" stroke="none"/><path d="M34 46 96 72v94l-62-26Z" fill="#fff0cf" /><path d="M96 72 152 46v94l-56 26Z" fill="#b7d2cc" /><path d="M45 71v14l10 4v-14Z" fill="#4b8c9e" /><path d="M50 73v10" fill="none" stroke="#bce7dc" stroke-width="2"/><path d="M70 81.5v14l10 4v-14Z" fill="#4b8c9e" /><path d="M75 83.5v10" fill="none" stroke="#bce7dc" stroke-width="2"/><path d="M45 96v14l10 4v-14Z" fill="#4b8c9e" /><path d="M50 98v10" fill="none" stroke="#bce7dc" stroke-width="2"/><path d="M70 106.5v14l10 4v-14Z" fill="#4b8c9e" /><path d="M75 108.5v10" fill="none" stroke="#bce7dc" stroke-width="2"/><path d="M45 121v14l10 4v-14Z" fill="#4b8c9e" /><path d="M50 123v10" fill="none" stroke="#bce7dc" stroke-width="2"/><path d="M70 131.5v14l10 4v-14Z" fill="#4b8c9e" /><path d="M75 133.5v10" fill="none" stroke="#bce7dc" stroke-width="2"/><path d="M109 80v13l9-4v-13Z" fill="#397f91" /><path d="M132 69.65v13l9-4v-13Z" fill="#397f91" /><path d="M109 105v13l9-4v-13Z" fill="#397f91" /><path d="M132 94.65v13l9-4v-13Z" fill="#397f91" /><path d="M109 130v13l9-4v-13Z" fill="#397f91" /><path d="M132 119.65v13l9-4v-13Z" fill="#397f91" /><path d="M73 155v-22q8-11 16 7v22Z" fill="#69565e" /><path d="M24 47 43 16 96 35 143 11 161 47 97 80Z" fill="#69778e" /><path d="M43 16 91 4 143 11 96 35Z" fill="#a6b6c2" /><path d="M63 37v-18l14 6v18Z" fill="#fff0cf" /><path d="m61 18 9-9 10 17Z" fill="#bc5264" /><g stroke="#294854" stroke-width="2"><path d="m52 90 33 14v20l-33-14Z" fill="#ffd36a"/><path d="M62 99v12m13-7v12m-13-11 13 6" fill="none" stroke-width="3"/></g><path d="M34 140 96 166l56-26" fill="none" stroke="#e3c396" stroke-width="4"/></g></g><g transform="translate(384 192)"><g stroke="#315362" stroke-width="2.5" stroke-linejoin="round"><path d="M21 147 94 180 167 143 94 115Z" fill="#254d5720" stroke="none"/><path d="M34 46 96 72v94l-62-26Z" fill="#fff0cf" /><path d="M96 72 152 46v94l-56 26Z" fill="#b7d2cc" /><path d="M45 71v14l10 4v-14Z" fill="#4b8c9e" /><path d="M50 73v10" fill="none" stroke="#bce7dc" stroke-width="2"/><path d="M70 81.5v14l10 4v-14Z" fill="#4b8c9e" /><path d="M75 83.5v10" fill="none" stroke="#bce7dc" stroke-width="2"/><path d="M45 96v14l10 4v-14Z" fill="#4b8c9e" /><path d="M50 98v10" fill="none" stroke="#bce7dc" stroke-width="2"/><path d="M70 106.5v14l10 4v-14Z" fill="#4b8c9e" /><path d="M75 108.5v10" fill="none" stroke="#bce7dc" stroke-width="2"/><path d="M45 121v14l10 4v-14Z" fill="#4b8c9e" /><path d="M50 123v10" fill="none" stroke="#bce7dc" stroke-width="2"/><path d="M70 131.5v14l10 4v-14Z" fill="#4b8c9e" /><path d="M75 133.5v10" fill="none" stroke="#bce7dc" stroke-width="2"/><path d="M109 80v13l9-4v-13Z" fill="#397f91" /><path d="M132 69.65v13l9-4v-13Z" fill="#397f91" /><path d="M109 105v13l9-4v-13Z" fill="#397f91" /><path d="M132 94.65v13l9-4v-13Z" fill="#397f91" /><path d="M109 130v13l9-4v-13Z" fill="#397f91" /><path d="M132 119.65v13l9-4v-13Z" fill="#397f91" /><path d="M73 155v-22q8-11 16 7v22Z" fill="#69565e" /><path d="M21 52 55 7 121 36 160 51 98 82Z" fill="#bc5264" /><path d="M21 52 55 7 98 82Z" fill="#fff0cf" /><path d="M28 51 55 17 87 73M55 17v48" fill="none" stroke="#624b49" stroke-width="5"/><path d="M38 82 91 105m-53 30 53 23M65 70v80" fill="none" stroke="#806052" stroke-width="5"/><g stroke="#294854" stroke-width="2"><path d="m52 90 33 14v20l-33-14Z" fill="#ffd36a"/><path d="M62 99v12m13-7v12m-13-11 13 6" fill="none" stroke-width="3"/></g><path d="M34 140 96 166l56-26" fill="none" stroke="#e3c396" stroke-width="4"/></g></g><g transform="translate(576 192)"><g stroke="#315362" stroke-width="2.5" stroke-linejoin="round"><path d="M21 147 94 180 167 143 94 115Z" fill="#254d5720" stroke="none"/><path d="M34 46 96 72v94l-62-26Z" fill="#fff0cf" /><path d="M96 72 152 46v94l-56 26Z" fill="#b7d2cc" /><path d="M45 71v14l10 4v-14Z" fill="#4b8c9e" /><path d="M50 73v10" fill="none" stroke="#bce7dc" stroke-width="2"/><path d="M70 81.5v14l10 4v-14Z" fill="#4b8c9e" /><path d="M75 83.5v10" fill="none" stroke="#bce7dc" stroke-width="2"/><path d="M45 96v14l10 4v-14Z" fill="#4b8c9e" /><path d="M50 98v10" fill="none" stroke="#bce7dc" stroke-width="2"/><path d="M70 106.5v14l10 4v-14Z" fill="#4b8c9e" /><path d="M75 108.5v10" fill="none" stroke="#bce7dc" stroke-width="2"/><path d="M45 121v14l10 4v-14Z" fill="#4b8c9e" /><path d="M50 123v10" fill="none" stroke="#bce7dc" stroke-width="2"/><path d="M70 131.5v14l10 4v-14Z" fill="#4b8c9e" /><path d="M75 133.5v10" fill="none" stroke="#bce7dc" stroke-width="2"/><path d="M109 80v13l9-4v-13Z" fill="#397f91" /><path d="M132 69.65v13l9-4v-13Z" fill="#397f91" /><path d="M109 105v13l9-4v-13Z" fill="#397f91" /><path d="M132 94.65v13l9-4v-13Z" fill="#397f91" /><path d="M109 130v13l9-4v-13Z" fill="#397f91" /><path d="M132 119.65v13l9-4v-13Z" fill="#397f91" /><path d="M73 155v-22q8-11 16 7v22Z" fill="#69565e" /><path d="M18 41q30 12 47-25l55 22q13 18 43 7l-8 15-59 27-70-26Z" fill="#526b7c" /><path d="M18 41q45 22 78 37 39-19 67-33" fill="none" stroke="#bc5264" stroke-width="6"/><path d="M27 27q27 9 43-19l44 16q15 13 40 3l-6 12-52 24-61-25Z" fill="#526b7c" /><path d="M34 81 96 107l56-26" fill="none" stroke="#bc5264" stroke-width="8"/><g stroke="#294854" stroke-width="2"><path d="m52 90 33 14v20l-33-14Z" fill="#ffd36a"/><path d="M62 99v12m13-7v12m-13-11 13 6" fill="none" stroke-width="3"/></g><path d="M34 140 96 166l56-26" fill="none" stroke="#e3c396" stroke-width="4"/></g></g><g transform="translate(768 192)"><g stroke="#315362" stroke-width="2.5" stroke-linejoin="round"><path d="M21 147 94 180 167 143 94 115Z" fill="#254d5720" stroke="none"/><path d="M34 46 96 72v94l-62-26Z" fill="#fff0cf" /><path d="M96 72 152 46v94l-56 26Z" fill="#b7d2cc" /><path d="M45 71v14l10 4v-14Z" fill="#4b8c9e" /><path d="M50 73v10" fill="none" stroke="#bce7dc" stroke-width="2"/><path d="M70 81.5v14l10 4v-14Z" fill="#4b8c9e" /><path d="M75 83.5v10" fill="none" stroke="#bce7dc" stroke-width="2"/><path d="M45 96v14l10 4v-14Z" fill="#4b8c9e" /><path d="M50 98v10" fill="none" stroke="#bce7dc" stroke-width="2"/><path d="M70 106.5v14l10 4v-14Z" fill="#4b8c9e" /><path d="M75 108.5v10" fill="none" stroke="#bce7dc" stroke-width="2"/><path d="M45 121v14l10 4v-14Z" fill="#4b8c9e" /><path d="M50 123v10" fill="none" stroke="#bce7dc" stroke-width="2"/><path d="M70 131.5v14l10 4v-14Z" fill="#4b8c9e" /><path d="M75 133.5v10" fill="none" stroke="#bce7dc" stroke-width="2"/><path d="M109 80v13l9-4v-13Z" fill="#397f91" /><path d="M132 69.65v13l9-4v-13Z" fill="#397f91" /><path d="M109 105v13l9-4v-13Z" fill="#397f91" /><path d="M132 94.65v13l9-4v-13Z" fill="#397f91" /><path d="M109 130v13l9-4v-13Z" fill="#397f91" /><path d="M132 119.65v13l9-4v-13Z" fill="#397f91" /><path d="M73 155v-22q8-11 16 7v22Z" fill="#69565e" /><path d="M28 46 88 18 158 46 96 76Z" fill="#adb9be" /><path d="M61 33v-18l30-13 33 14v17l-31 15Z" fill="#fff0cf" /><path d="M91 2v-13m-12 40v-15m25 16v-15" fill="none" stroke="#bf596e" stroke-width="5"/><path d="M42 61v70m13 -60v65m76 -74v78" fill="none" stroke="#c89357" stroke-width="3"/><g stroke="#294854" stroke-width="2"><path d="m52 90 33 14v20l-33-14Z" fill="#ffd36a"/><path d="M62 99v12m13-7v12m-13-11 13 6" fill="none" stroke-width="3"/></g><path d="M34 140 96 166l56-26" fill="none" stroke="#e3c396" stroke-width="4"/></g></g></svg>